<svg width="184" height="184" viewBox="0 0 184 184" fill="none" xmlns="http://www.w3.org/2000/svg">
<g clip-path="url(#clip0_502_8)">
<rect width="184" height="184" rx="30" fill="#E5E5E5"/>
<rect width="184" height="184" fill="#F3FAF6"/>
<path d="M14.5235 161.127C6.9898 161.127 1.14737 159.668 -3.00383 156.751C-7.00127 153.835 -9 149.92 -9 145.007C-9 140.709 -7.53939 137.408 -4.61818 135.105C-1.54322 132.803 1.99299 131.651 5.99044 131.651C9.98789 131.651 13.5241 132.572 16.5991 134.415C19.674 136.103 22.5184 139.097 25.1321 143.395L29.2833 150.534C30.052 151.609 30.9745 152.146 32.0507 152.146C33.2807 152.146 34.1263 151.455 34.5876 150.073C35.5101 147.003 36.1251 142.551 36.4326 136.717C36.8938 130.73 37.1244 123.515 37.1244 115.072C37.1244 105.4 36.8938 92.9651 36.4326 77.767C35.9713 62.5688 35.5101 43.8398 35.0488 21.5798C35.0488 14.9786 32.5889 10.8336 27.6689 9.14496L22.3646 7.30275V5H82.7876V7.30275L77.7139 9.14496C74.9465 10.2196 73.0246 11.678 71.9484 13.5202C71.0259 15.2089 70.5646 17.6651 70.5646 20.889V66.4835C70.5646 81.5281 69.8728 93.963 68.489 103.788C67.1053 113.613 64.876 122.133 61.801 129.349C57.9573 139.634 51.6536 147.54 42.89 153.067C34.2801 158.44 24.8246 161.127 14.5235 161.127Z" fill="#002D13"/>
<path d="M78 179V176.605L83.036 174.69C86.2335 173.572 88.3118 172.056 89.2711 170.14C90.2303 168.225 90.7099 165.75 90.7099 162.717V37.4853C90.7099 34.2926 90.2303 31.7385 89.2711 29.8229C88.3118 27.9073 86.2335 26.3908 83.036 25.2734L78 23.3578V20.9633H137.713V23.3578L132.437 25.5128C129.719 26.4706 127.881 27.9073 126.921 29.8229C125.962 31.7385 125.482 34.3725 125.482 37.7248V162.957C125.482 166.15 125.962 168.624 126.921 170.38C128.04 172.136 130.119 173.572 133.156 174.69L137.713 176.605V179H78ZM166.49 179V176.605L169.608 175.648C172.805 174.69 174.484 173.094 174.644 170.859C174.803 168.624 173.844 166.07 171.766 163.196L125.722 97.8266L186.394 36.0486C188.632 33.8138 189.832 31.6587 189.991 29.5835C190.311 27.5082 188.792 25.9119 185.435 24.7945L181.358 23.3578V20.9633H216.371V23.3578L210.135 25.2734C206.618 26.3908 203.82 27.7477 201.742 29.344C199.664 30.9404 197.266 33.0954 194.548 35.8092L151.622 79.6284L207.977 161.76C210.375 165.272 212.613 168.145 214.692 170.38C216.93 172.615 220.048 174.371 224.044 175.648L227.402 176.605V179H166.49Z" fill="#002D13"/>
<rect x="178" y="13" width="23" height="20" fill="#F3FAF6"/>
</g>
<defs>
<clipPath id="clip0_502_8">
<rect width="184" height="184" rx="30" fill="white"/>
</clipPath>
</defs>
</svg>
